<svg xmlns="http://www.w3.org/2000/svg" width="44.727" height="43.594" viewBox="0 0 44.727 43.594">
  <path id="FontAwsome_arrow-left_" data-name="FontAwsome (arrow-left)" d="M25.66,78.324,23.444,80.54a2.386,2.386,0,0,1-3.384,0L.654,61.144a2.386,2.386,0,0,1,0-3.384L20.06,38.354a2.386,2.386,0,0,1,3.384,0L25.66,40.57a2.4,2.4,0,0,1-.04,3.424L13.591,55.454h28.69a2.39,2.39,0,0,1,2.4,2.4v3.194a2.39,2.39,0,0,1-2.4,2.4H13.591L25.62,74.9A2.381,2.381,0,0,1,25.66,78.324Z" transform="translate(0.05 -37.65)" fill="#fff"/>
</svg>
