<svg xmlns="http://www.w3.org/2000/svg" width="128" height="104" viewBox="0 0 128 104">
  <g id="Get_Started_Icon" transform="translate(1)">
    <g id="Path_3" data-name="Path 3" transform="translate(31)" fill="#fff" opacity="0.62">
      <path d="M31.5,0A31.5,31.5,0,1,1,0,31.5,31.5,31.5,0,0,1,31.5,0Z" stroke="none"/>
      <path d="M 31.5 1 C 27.3820915222168 1 23.38787841796875 1.806278228759766 19.62833023071289 3.396430969238281 C 15.99652862548828 4.932548522949219 12.7346305847168 7.131851196289063 9.933238983154297 9.933238983154297 C 7.131851196289063 12.7346305847168 4.932548522949219 15.99652862548828 3.396430969238281 19.62833023071289 C 1.806278228759766 23.38787841796875 1 27.3820915222168 1 31.5 C 1 35.61791229248047 1.806278228759766 39.61212158203125 3.396430969238281 43.37166976928711 C 4.932548522949219 47.00347137451172 7.131851196289063 50.2653694152832 9.933238983154297 53.0667610168457 C 12.7346305847168 55.86814880371094 15.99652862548828 58.06745147705078 19.62833023071289 59.60356903076172 C 23.38787841796875 61.19372177124023 27.3820915222168 62 31.5 62 C 35.61791229248047 62 39.61212158203125 61.19372177124023 43.37166976928711 59.60356903076172 C 47.00347137451172 58.06745147705078 50.2653694152832 55.86814880371094 53.0667610168457 53.0667610168457 C 55.86814880371094 50.2653694152832 58.06745147705078 47.00347137451172 59.60356903076172 43.37166976928711 C 61.19372177124023 39.61212158203125 62 35.61791229248047 62 31.5 C 62 27.3820915222168 61.19372177124023 23.38787841796875 59.60356903076172 19.62833023071289 C 58.06745147705078 15.99652862548828 55.86814880371094 12.7346305847168 53.0667610168457 9.933238983154297 C 50.2653694152832 7.131851196289063 47.00347137451172 4.932548522949219 43.37166976928711 3.396430969238281 C 39.61212158203125 1.806278228759766 35.61791229248047 1 31.5 1 M 31.5 0 C 48.89696884155273 0 63 14.10303115844727 63 31.5 C 63 48.89696884155273 48.89696884155273 63 31.5 63 C 14.10303115844727 63 0 48.89696884155273 0 31.5 C 0 14.10303115844727 14.10303115844727 0 31.5 0 Z" stroke="none" fill="rgba(93,87,87,0.62)"/>
    </g>
    <path id="Icon_ionic-md-create" data-name="Icon ionic-md-create" d="M4.5,25.875V31.5h5.625L26.7,14.925,21.075,9.3Zm26.55-15.3a1.45,1.45,0,0,0,0-2.1L27.525,4.95a1.45,1.45,0,0,0-2.1,0L22.65,7.725l5.625,5.625Z" transform="translate(44.5 13.5)" fill="rgba(93,87,87,0.62)" opacity="0.62"/>
    <text id="GET_STARTED" data-name="GET STARTED" transform="translate(0 98)" fill="rgba(93,87,87,0.62)" stroke="rgba(112,112,112,0)" stroke-width="1" font-size="20" font-family="MalgunGothic-Semilight, Malgun Gothic" font-weight="300" letter-spacing="0.02em"><tspan x="0" y="0">GET STARTED</tspan></text>
  </g>
</svg>
